<svg width="10" height="10" viewBox="0 0 10 10" fill="none" xmlns="http://www.w3.org/2000/svg">
<path d="M2.5 3.8335C2.5 3.47983 2.64049 3.14065 2.89057 2.89057C3.14065 2.64049 3.47983 2.5 3.8335 2.5H8.1665C8.34162 2.5 8.51502 2.53449 8.67681 2.60151C8.8386 2.66852 8.9856 2.76675 9.10943 2.89057C9.23325 3.0144 9.33148 3.1614 9.39849 3.32319C9.46551 3.48498 9.5 3.65838 9.5 3.8335V8.1665C9.5 8.34162 9.46551 8.51502 9.39849 8.67681C9.33148 8.8386 9.23325 8.9856 9.10943 9.10943C8.9856 9.23325 8.8386 9.33148 8.67681 9.39849C8.51502 9.46551 8.34162 9.5 8.1665 9.5H3.8335C3.65838 9.5 3.48498 9.46551 3.32319 9.39849C3.1614 9.33148 3.0144 9.23325 2.89057 9.10943C2.76675 8.9856 2.66852 8.8386 2.60151 8.67681C2.53449 8.51502 2.5 8.34162 2.5 8.1665V3.8335Z" stroke="black" stroke-linecap="round" stroke-linejoin="round"/>
<path d="M1.006 7.3685C0.8525 7.28129 0.724825 7.15499 0.63595 7.00245C0.547076 6.8499 0.50017 6.67655 0.5 6.5V1.5C0.5 0.95 0.95 0.5 1.5 0.5H6.5C6.875 0.5 7.079 0.6925 7.25 1" stroke="black" stroke-linecap="round" stroke-linejoin="round"/>
</svg>
