<svg width="15" height="13" viewBox="0 0 15 13" fill="none" xmlns="http://www.w3.org/2000/svg">
<path d="M7.22 4L9.33333 6.10667V6C9.33333 5.46957 9.12262 4.96086 8.74755 4.58579C8.37247 4.21071 7.86377 4 7.33333 4H7.22ZM4.35333 4.53333L5.38667 5.56667C5.35333 5.70667 5.33333 5.84667 5.33333 6C5.33333 6.53043 5.54405 7.03914 5.91912 7.41421C6.29419 7.78929 6.8029 8 7.33333 8C7.48 8 7.62667 7.98 7.76667 7.94667L8.8 8.98C8.35333 9.2 7.86 9.33333 7.33333 9.33333C6.44928 9.33333 5.60143 8.98214 4.97631 8.35702C4.35119 7.7319 4 6.88405 4 6C4 5.47333 4.13333 4.98 4.35333 4.53333ZM0.666667 0.846667L2.18667 2.36667L2.48667 2.66667C1.38667 3.53333 0.52 4.66667 0 6C1.15333 8.92667 4 11 7.33333 11C8.36667 11 9.35333 10.8 10.2533 10.44L10.54 10.72L12.4867 12.6667L13.3333 11.82L1.51333 0M7.33333 2.66667C8.21739 2.66667 9.06523 3.01786 9.69036 3.64298C10.3155 4.2681 10.6667 5.11594 10.6667 6C10.6667 6.42667 10.58 6.84 10.4267 7.21333L12.38 9.16667C13.38 8.33333 14.18 7.24 14.6667 6C13.5133 3.07333 10.6667 1 7.33333 1C6.4 1 5.50667 1.16667 4.66667 1.46667L6.11333 2.9C6.49333 2.75333 6.9 2.66667 7.33333 2.66667Z" fill="black"/>
</svg>
