<svg width="13" height="14" viewBox="0 0 13 14" fill="none" xmlns="http://www.w3.org/2000/svg">
<path d="M11.9889 14L7.43889 9.1C7.07778 9.41111 6.6625 9.65741 6.19306 9.83889C5.72361 10.0204 5.22407 10.1111 4.69444 10.1111C3.38241 10.1111 2.27211 9.62163 1.36356 8.64267C0.455 7.6637 0.000481864 6.468 3.82128e-07 5.05556C-0.000481099 3.64311 0.454037 2.44741 1.36356 1.46844C2.27307 0.489482 3.38337 0 4.69444 0C6.00552 0 7.11606 0.489482 8.02606 1.46844C8.93606 2.44741 9.39033 3.64311 9.38889 5.05556C9.38889 5.62593 9.30463 6.16389 9.13611 6.66944C8.96759 7.175 8.73889 7.62222 8.45 8.01111L13 12.9111L11.9889 14ZM4.69444 8.55556C5.59722 8.55556 6.3647 8.21541 6.99689 7.53511C7.62907 6.85481 7.94493 6.0283 7.94445 5.05556C7.94396 4.08281 7.62811 3.25656 6.99689 2.57678C6.36567 1.897 5.59819 1.55659 4.69444 1.55556C3.7907 1.55452 3.02346 1.89493 2.39272 2.57678C1.76198 3.25863 1.44589 4.08489 1.44444 5.05556C1.443 6.02622 1.75909 6.85274 2.39272 7.53511C3.02635 8.21748 3.79359 8.55763 4.69444 8.55556Z" fill="white"/>
</svg>
