<svg width="21" height="20" viewBox="0 0 21 20" fill="none" xmlns="http://www.w3.org/2000/svg">
<path d="M18.9 10.66C18.7397 10.4775 18.6513 10.2429 18.6513 10C18.6513 9.75711 18.7397 9.52251 18.9 9.34002L20.18 7.90002C20.3211 7.74269 20.4087 7.54472 20.4302 7.33452C20.4518 7.12433 20.4062 6.9127 20.3 6.73002L18.3 3.27002C18.1949 3.08754 18.0349 2.94289 17.8428 2.8567C17.6506 2.77051 17.4362 2.74718 17.23 2.79002L15.35 3.17002C15.1108 3.21945 14.8618 3.17961 14.6499 3.05802C14.438 2.93643 14.278 2.7415 14.2 2.51002L13.59 0.680017C13.5229 0.481396 13.3951 0.308882 13.2246 0.186859C13.0542 0.0648361 12.8497 -0.000523977 12.64 1.71846e-05H8.64002C8.42195 -0.0113649 8.20615 0.0489435 8.02558 0.171731C7.84501 0.294519 7.7096 0.473036 7.64002 0.680017L7.08002 2.51002C7.00202 2.7415 6.84199 2.93643 6.63013 3.05802C6.41827 3.17961 6.16924 3.21945 5.93002 3.17002L4.00002 2.79002C3.80457 2.7624 3.60532 2.79324 3.42737 2.87866C3.24941 2.96407 3.10072 3.10025 3.00002 3.27002L1.00002 6.73002C0.891178 6.91067 0.84224 7.1211 0.860201 7.33124C0.878161 7.54138 0.962101 7.74046 1.10002 7.90002L2.37002 9.34002C2.53034 9.52251 2.61875 9.75711 2.61875 10C2.61875 10.2429 2.53034 10.4775 2.37002 10.66L1.10002 12.1C0.962101 12.2596 0.878161 12.4587 0.860201 12.6688C0.84224 12.8789 0.891178 13.0894 1.00002 13.27L3.00002 16.73C3.10512 16.9125 3.26514 17.0571 3.45727 17.1433C3.6494 17.2295 3.86384 17.2529 4.07002 17.21L5.95002 16.83C6.18924 16.7806 6.43827 16.8204 6.65013 16.942C6.86199 17.0636 7.02202 17.2585 7.10002 17.49L7.71002 19.32C7.7796 19.527 7.91501 19.7055 8.09558 19.8283C8.27615 19.9511 8.49195 20.0114 8.71002 20H12.71C12.9197 20.0006 13.1242 19.9352 13.2946 19.8132C13.4651 19.6912 13.5929 19.5186 13.66 19.32L14.27 17.49C14.348 17.2585 14.508 17.0636 14.7199 16.942C14.9318 16.8204 15.1808 16.7806 15.42 16.83L17.3 17.21C17.5062 17.2529 17.7206 17.2295 17.9128 17.1433C18.1049 17.0571 18.2649 16.9125 18.37 16.73L20.37 13.27C20.4762 13.0873 20.5218 12.8757 20.5002 12.6655C20.4787 12.4553 20.3911 12.2573 20.25 12.1L18.9 10.66ZM17.41 12L18.21 12.9L16.93 15.12L15.75 14.88C15.0298 14.7328 14.2806 14.8551 13.6446 15.2238C13.0086 15.5925 12.5302 16.1819 12.3 16.88L11.92 18H9.36002L9.00002 16.86C8.76987 16.1619 8.2914 15.5725 7.65542 15.2038C7.01945 14.8351 6.27024 14.7128 5.55002 14.86L4.37002 15.1L3.07002 12.89L3.87002 11.99C4.36197 11.44 4.63395 10.7279 4.63395 9.99002C4.63395 9.25208 4.36197 8.54004 3.87002 7.99002L3.07002 7.09002L4.35002 4.89002L5.53002 5.13002C6.25024 5.27724 6.99945 5.1549 7.63542 4.78622C8.2714 4.41753 8.74987 3.82818 8.98002 3.13002L9.36002 2.00002H11.92L12.3 3.14002C12.5302 3.83818 13.0086 4.42753 13.6446 4.79622C14.2806 5.1649 15.0298 5.28724 15.75 5.14002L16.93 4.90002L18.21 7.12002L17.41 8.02002C16.9236 8.56878 16.655 9.2767 16.655 10.01C16.655 10.7433 16.9236 11.4513 17.41 12ZM10.64 6.00002C9.84889 6.00002 9.07553 6.23461 8.41774 6.67414C7.75994 7.11366 7.24725 7.73838 6.9445 8.46928C6.64175 9.20019 6.56254 10.0045 6.71688 10.7804C6.87122 11.5563 7.25218 12.269 7.81159 12.8284C8.371 13.3879 9.08373 13.7688 9.85966 13.9232C10.6356 14.0775 11.4398 13.9983 12.1708 13.6955C12.9017 13.3928 13.5264 12.8801 13.9659 12.2223C14.4054 11.5645 14.64 10.7911 14.64 10C14.64 8.93915 14.2186 7.92174 13.4684 7.17159C12.7183 6.42144 11.7009 6.00002 10.64 6.00002ZM10.64 12C10.2445 12 9.85778 11.8827 9.52888 11.663C9.19998 11.4432 8.94363 11.1308 8.79226 10.7654C8.64088 10.3999 8.60128 9.9978 8.67845 9.60984C8.75562 9.22187 8.9461 8.86551 9.2258 8.5858C9.50551 8.3061 9.86188 8.11562 10.2498 8.03845C10.6378 7.96128 11.0399 8.00088 11.4054 8.15226C11.7708 8.30363 12.0832 8.55998 12.303 8.88888C12.5227 9.21778 12.64 9.60445 12.64 10C12.64 10.5304 12.4293 11.0392 12.0542 11.4142C11.6792 11.7893 11.1705 12 10.64 12Z" fill="white"/>
</svg>
